<?xml version="1.0" standalone="no"?>
<!DOCTYPE svg PUBLIC "-//W3C//DTD SVG 20010904//EN"
 "http://www.w3.org/TR/2001/REC-SVG-20010904/DTD/svg10.dtd">
<svg version="1.0" xmlns="http://www.w3.org/2000/svg"
 width="6450.000000pt" height="360.000000pt" viewBox="0 0 6450.000000 360.000000"
 preserveAspectRatio="xMidYMid meet">
<metadata>
Created by potrace 1.16, written by Peter Selinger 2001-2019
</metadata>
<g transform="translate(0.000000,360.000000) scale(0.100000,-0.100000)"
fill="#000000" stroke="none">
<path d="M466 3569 l-26 -31 0 -1678 0 -1679 -196 -3 -196 -3 -24 -28 c-32
-38 -32 -90 1 -122 l24 -25 481 0 481 0 24 25 c33 32 33 84 1 122 l-24 28
-196 3 -196 3 0 1143 0 1143 98 149 c54 82 194 299 312 481 l215 333 318 0
317 0 0 -254 0 -253 -38 -6 c-90 -15 -177 -105 -202 -208 -24 -99 29 -215 122
-268 29 -17 61 -31 70 -31 24 0 29 -13 22 -59 -6 -38 -9 -41 -38 -41 -126 -1
-283 -96 -342 -205 -19 -36 -19 -37 1 -51 18 -14 21 -13 35 6 93 129 165 177
289 193 l44 5 -7 -61 c-3 -34 -9 -156 -12 -272 l-6 -210 -38 -40 c-57 -60
-145 -187 -179 -258 -49 -104 -58 -192 -29 -270 14 -37 54 -35 50 3 -1 14 -5
48 -8 77 -5 36 -1 69 12 109 20 65 108 202 182 283 48 54 49 54 73 37 49 -34
123 -113 160 -169 65 -100 82 -178 65 -305 -8 -63 -8 -64 15 -60 50 7 63 170
24 283 -35 100 -119 206 -248 312 -26 22 -27 26 -27 120 0 107 17 367 26 397
5 15 12 17 48 12 52 -9 132 -45 172 -79 17 -14 42 -46 55 -71 24 -46 54 -61
65 -31 8 20 -44 111 -79 141 -53 45 -133 79 -227 98 -24 5 -26 8 -20 52 5 46
6 47 53 59 59 15 113 57 152 120 27 43 30 57 30 124 0 86 -20 134 -77 188 -37
35 -111 72 -145 73 l-23 0 0 255 c0 214 2 255 14 255 24 0 56 50 56 87 0 23
-8 42 -25 58 l-24 25 -715 0 -714 0 -26 -31z m514 -148 c0 -5 -68 -115 -151
-243 -84 -128 -165 -253 -180 -278 l-29 -45 0 288 0 287 180 0 c104 0 180 -4
180 -9z"/>
<path d="M8333 2978 c1 -48 -3 -56 -41 -61 -90 -15 -177 -105 -202 -208 -24
-99 29 -215 122 -268 29 -17 61 -31 70 -31 24 0 29 -13 22 -59 -6 -38 -9 -41
-38 -41 -126 -1 -283 -96 -342 -205 -19 -36 -19 -37 1 -51 18 -14 21 -13 35 6
93 129 165 177 289 193 l44 5 -7 -61 c-3 -34 -9 -156 -12 -272 l-6 -210 -38
-40 c-57 -60 -145 -187 -179 -258 -49 -104 -58 -192 -29 -270 14 -37 54 -35
50 3 -1 14 -5 48 -8 77 -5 36 -1 69 12 109 20 65 108 202 182 283 48 54 49 54
73 37 49 -34 123 -113 160 -169 65 -100 82 -178 65 -305 -8 -63 -8 -64 15 -60
50 7 63 170 24 283 -35 100 -119 206 -248 312 -26 22 -27 26 -27 120 0 107 17
367 26 397 5 15 12 17 48 12 52 -9 132 -45 172 -79 17 -14 42 -46 55 -71 24
-46 54 -61 65 -31 8 20 -44 111 -79 141 -53 45 -133 79 -227 98 -24 5 -26 8
-20 52 5 46 6 47 53 59 59 15 113 57 152 120 27 43 30 57 30 124 0 86 -20 134
-77 188 -37 35 -111 72 -145 73 -20 0 -23 5 -23 35 0 19 -4 35 -9 35 -5 0 -9
-6 -8 -12z"/>
<path d="M2352 698 c-9 -9 -12 -81 -12 -264 0 -266 3 -281 47 -272 16 3 18 17
21 121 l3 117 104 0 105 0 0 -109 c0 -116 9 -139 50 -126 19 6 20 13 20 264 0
224 -2 260 -16 272 -11 9 -20 10 -32 2 -14 -8 -18 -30 -20 -122 l-3 -111 -104
0 -105 0 0 114 c0 95 -3 115 -16 120 -22 8 -28 8 -42 -6z"/>
<path d="M3112 702 c-16 -11 -154 -479 -150 -512 2 -19 9 -25 28 -25 21 0 28
8 45 57 l20 58 76 0 77 0 18 -57 c16 -50 22 -58 44 -58 20 0 26 6 28 27 3 27
-124 483 -141 506 -11 14 -26 15 -45 4z"/>
<path d="M3570 441 c0 -263 1 -270 20 -276 45 -14 49 5 52 208 l3 191 89 -202
89 -202 48 0 49 0 0 259 c0 223 -2 262 -16 275 -18 18 -24 19 -43 7 -10 -7
-13 -48 -12 -200 1 -105 -2 -191 -6 -191 -4 0 -47 89 -94 198 l-86 197 -47 3
-46 3 0 -270z"/>
<path d="M4344 700 c-21 -8 -126 -133 -150 -178 -17 -34 -20 -269 -3 -306 21
-45 63 -58 176 -55 97 4 104 6 130 32 26 25 28 34 31 122 l4 95 -80 0 c-60 0
-83 -4 -93 -16 -22 -26 1 -49 55 -52 45 -3 46 -4 46 -38 0 -66 -11 -74 -103
-74 -51 0 -88 5 -95 12 -8 8 -12 50 -12 124 l0 112 57 76 57 76 64 0 c35 0 72
5 83 10 21 12 25 40 7 58 -14 14 -141 15 -174 2z"/>
<path d="M4790 446 c0 -228 2 -265 16 -277 11 -9 20 -10 32 -2 15 9 18 39 22
223 l5 214 30 -45 c17 -24 32 -55 35 -69 4 -20 11 -25 35 -25 24 0 31 5 35 25
3 14 19 45 35 69 l30 45 3 -217 c2 -207 3 -216 23 -222 46 -15 49 -1 49 281
l0 264 -45 0 c-43 0 -45 -2 -85 -60 -22 -33 -43 -60 -45 -60 -2 0 -23 27 -45
60 -40 58 -42 60 -85 60 l-45 0 0 -264z"/>
<path d="M5553 698 c-4 -7 -40 -123 -80 -257 -76 -257 -79 -286 -30 -279 17 2
26 16 40 61 l18 57 79 0 78 0 12 -50 c6 -27 18 -54 25 -60 21 -17 55 -2 55 23
-1 38 -139 500 -152 509 -19 11 -36 10 -45 -4z"/>
<path d="M6017 703 c-12 -11 -8 -502 3 -524 14 -25 46 -25 60 0 6 12 10 96 10
203 l1 183 88 -200 88 -200 47 -3 46 -3 0 270 c0 265 0 270 -21 276 -39 13
-44 -7 -49 -207 l-5 -191 -89 202 -89 201 -42 0 c-23 0 -45 -3 -48 -7z"/>
<path d="M8802 698 c-9 -9 -12 -81 -12 -264 0 -266 3 -281 47 -272 16 3 18 17
21 121 l3 117 104 0 105 0 0 -109 c0 -116 9 -139 50 -126 19 6 20 13 20 264 0
224 -2 260 -16 272 -11 9 -20 10 -32 2 -14 -8 -18 -30 -20 -122 l-3 -111 -104
0 -105 0 0 114 c0 95 -3 115 -16 120 -22 8 -28 8 -42 -6z"/>
<path d="M9562 702 c-16 -11 -154 -479 -150 -512 2 -19 9 -25 28 -25 21 0 28
8 45 57 l20 58 76 0 77 0 18 -57 c16 -50 22 -58 44 -58 20 0 26 6 28 27 3 27
-124 483 -141 506 -11 14 -26 15 -45 4z"/>
<path d="M10020 441 c0 -263 1 -270 20 -276 45 -14 49 5 52 208 l3 191 89
-202 89 -202 48 0 49 0 0 259 c0 223 -2 262 -16 275 -18 18 -24 19 -43 7 -10
-7 -13 -48 -12 -200 1 -105 -2 -191 -6 -191 -4 0 -47 89 -94 198 l-86 197 -47
3 -46 3 0 -270z"/>
<path d="M10794 700 c-21 -8 -126 -133 -150 -178 -17 -34 -20 -269 -3 -306 21
-45 63 -58 176 -55 97 4 104 6 130 32 26 25 28 34 31 122 l4 95 -80 0 c-60 0
-83 -4 -93 -16 -22 -26 1 -49 55 -52 45 -3 46 -4 46 -38 0 -66 -11 -74 -103
-74 -51 0 -88 5 -95 12 -8 8 -12 50 -12 124 l0 112 57 76 57 76 64 0 c35 0 72
5 83 10 21 12 25 40 7 58 -14 14 -141 15 -174 2z"/>
<path d="M11240 446 c0 -228 2 -265 16 -277 11 -9 20 -10 32 -2 15 9 18 39 22
223 l5 214 30 -45 c17 -24 32 -55 35 -69 4 -20 11 -25 35 -25 24 0 31 5 35 25
3 14 19 45 35 69 l30 45 3 -217 c2 -207 3 -216 23 -222 46 -15 49 -1 49 281
l0 264 -45 0 c-43 0 -45 -2 -85 -60 -22 -33 -43 -60 -45 -60 -2 0 -23 27 -45
60 -40 58 -42 60 -85 60 l-45 0 0 -264z"/>
<path d="M12003 698 c-4 -7 -40 -123 -80 -257 -76 -257 -79 -286 -30 -279 17
2 26 16 40 61 l18 57 79 0 78 0 12 -50 c6 -27 18 -54 25 -60 21 -17 55 -2 55
23 -1 38 -139 500 -152 509 -19 11 -36 10 -45 -4z"/>
<path d="M12467 703 c-12 -11 -8 -502 3 -524 14 -25 46 -25 60 0 6 12 10 96
10 203 l1 183 88 -200 88 -200 47 -3 46 -3 0 270 c0 265 0 270 -21 276 -39 13
-44 -7 -49 -207 l-5 -191 -89 202 -89 201 -42 0 c-23 0 -45 -3 -48 -7z"/>
<path d="M15252 698 c-9 -9 -12 -81 -12 -264 0 -266 3 -281 47 -272 16 3 18
17 21 121 l3 117 104 0 105 0 0 -109 c0 -116 9 -139 50 -126 19 6 20 13 20
264 0 224 -2 260 -16 272 -11 9 -20 10 -32 2 -14 -8 -18 -30 -20 -122 l-3
-111 -104 0 -105 0 0 114 c0 95 -3 115 -16 120 -22 8 -28 8 -42 -6z"/>
<path d="M16012 702 c-16 -11 -154 -479 -150 -512 2 -19 9 -25 28 -25 21 0 28
8 45 57 l20 58 76 0 77 0 18 -57 c16 -50 22 -58 44 -58 20 0 26 6 28 27 3 27
-124 483 -141 506 -11 14 -26 15 -45 4z"/>
<path d="M16470 441 c0 -263 1 -270 20 -276 45 -14 49 5 52 208 l3 191 89
-202 89 -202 48 0 49 0 0 259 c0 223 -2 262 -16 275 -18 18 -24 19 -43 7 -10
-7 -13 -48 -12 -200 1 -105 -2 -191 -6 -191 -4 0 -47 89 -94 198 l-86 197 -47
3 -46 3 0 -270z"/>
<path d="M17244 700 c-21 -8 -126 -133 -150 -178 -17 -34 -20 -269 -3 -306 21
-45 63 -58 176 -55 97 4 104 6 130 32 26 25 28 34 31 122 l4 95 -80 0 c-60 0
-83 -4 -93 -16 -22 -26 1 -49 55 -52 45 -3 46 -4 46 -38 0 -66 -11 -74 -103
-74 -51 0 -88 5 -95 12 -8 8 -12 50 -12 124 l0 112 57 76 57 76 64 0 c35 0 72
5 83 10 21 12 25 40 7 58 -14 14 -141 15 -174 2z"/>
<path d="M17690 446 c0 -228 2 -265 16 -277 11 -9 20 -10 32 -2 15 9 18 39 22
223 l5 214 30 -45 c17 -24 32 -55 35 -69 4 -20 11 -25 35 -25 24 0 31 5 35 25
3 14 19 45 35 69 l30 45 3 -217 c2 -207 3 -216 23 -222 46 -15 49 -1 49 281
l0 264 -45 0 c-43 0 -45 -2 -85 -60 -22 -33 -43 -60 -45 -60 -2 0 -23 27 -45
60 -40 58 -42 60 -85 60 l-45 0 0 -264z"/>
<path d="M18453 698 c-4 -7 -40 -123 -80 -257 -76 -257 -79 -286 -30 -279 17
2 26 16 40 61 l18 57 79 0 78 0 12 -50 c6 -27 18 -54 25 -60 21 -17 55 -2 55
23 -1 38 -139 500 -152 509 -19 11 -36 10 -45 -4z"/>
<path d="M18917 703 c-12 -11 -8 -502 3 -524 14 -25 46 -25 60 0 6 12 10 96
10 203 l1 183 88 -200 88 -200 47 -3 46 -3 0 270 c0 265 0 270 -21 276 -39 13
-44 -7 -49 -207 l-5 -191 -89 202 -89 201 -42 0 c-23 0 -45 -3 -48 -7z"/>
<path d="M22462 702 c-16 -11 -154 -479 -150 -512 2 -19 9 -25 28 -25 21 0 28
8 45 57 l20 58 76 0 77 0 18 -57 c16 -50 22 -58 44 -58 20 0 26 6 28 27 3 27
-124 483 -141 506 -11 14 -26 15 -45 4z"/>
<path d="M22920 441 c0 -263 1 -270 20 -276 45 -14 49 5 52 208 l3 191 89
-202 89 -202 48 0 49 0 0 259 c0 223 -2 262 -16 275 -18 18 -24 19 -43 7 -10
-7 -13 -48 -12 -200 1 -105 -2 -191 -6 -191 -4 0 -47 89 -94 198 l-86 197 -47
3 -46 3 0 -270z"/>
<path d="M23694 700 c-21 -8 -126 -133 -150 -178 -17 -34 -20 -269 -3 -306 21
-45 63 -58 176 -55 97 4 104 6 130 32 26 25 28 34 31 122 l4 95 -80 0 c-60 0
-83 -4 -93 -16 -22 -26 1 -49 55 -52 45 -3 46 -4 46 -38 0 -66 -11 -74 -103
-74 -51 0 -88 5 -95 12 -8 8 -12 50 -12 124 l0 112 57 76 57 76 64 0 c35 0 72
5 83 10 21 12 25 40 7 58 -14 14 -141 15 -174 2z"/>
<path d="M24140 446 c0 -228 2 -265 16 -277 11 -9 20 -10 32 -2 15 9 18 39 22
223 l5 214 30 -45 c17 -24 32 -55 35 -69 4 -20 11 -25 35 -25 24 0 31 5 35 25
3 14 19 45 35 69 l30 45 3 -217 c2 -207 3 -216 23 -222 46 -15 49 -1 49 281
l0 264 -45 0 c-43 0 -45 -2 -85 -60 -22 -33 -43 -60 -45 -60 -2 0 -23 27 -45
60 -40 58 -42 60 -85 60 l-45 0 0 -264z"/>
<path d="M24903 698 c-4 -7 -40 -123 -80 -257 -76 -257 -79 -286 -30 -279 17
2 26 16 40 61 l18 57 79 0 78 0 12 -50 c6 -27 18 -54 25 -60 21 -17 55 -2 55
23 -1 38 -139 500 -152 509 -19 11 -36 10 -45 -4z"/>
<path d="M25367 703 c-12 -11 -8 -502 3 -524 14 -25 46 -25 60 0 6 12 10 96
10 203 l1 183 88 -200 88 -200 47 -3 46 -3 0 270 c0 265 0 270 -21 276 -39 13
-44 -7 -49 -207 l-5 -191 -89 202 -89 201 -42 0 c-23 0 -45 -3 -48 -7z"/>
<path d="M29370 441 c0 -263 1 -270 20 -276 45 -14 49 5 52 208 l3 191 89
-202 89 -202 48 0 49 0 0 259 c0 223 -2 262 -16 275 -18 18 -24 19 -43 7 -10
-7 -13 -48 -12 -200 1 -105 -2 -191 -6 -191 -4 0 -47 89 -94 198 l-86 197 -47
3 -46 3 0 -270z"/>
<path d="M30144 700 c-21 -8 -126 -133 -150 -178 -17 -34 -20 -269 -3 -306 21
-45 63 -58 176 -55 97 4 104 6 130 32 26 25 28 34 31 122 l4 95 -80 0 c-60 0
-83 -4 -93 -16 -22 -26 1 -49 55 -52 45 -3 46 -4 46 -38 0 -66 -11 -74 -103
-74 -51 0 -88 5 -95 12 -8 8 -12 50 -12 124 l0 112 57 76 57 76 64 0 c35 0 72
5 83 10 21 12 25 40 7 58 -14 14 -141 15 -174 2z"/>
<path d="M30590 446 c0 -228 2 -265 16 -277 11 -9 20 -10 32 -2 15 9 18 39 22
223 l5 214 30 -45 c17 -24 32 -55 35 -69 4 -20 11 -25 35 -25 24 0 31 5 35 25
3 14 19 45 35 69 l30 45 3 -217 c2 -207 3 -216 23 -222 46 -15 49 -1 49 281
l0 264 -45 0 c-43 0 -45 -2 -85 -60 -22 -33 -43 -60 -45 -60 -2 0 -23 27 -45
60 -40 58 -42 60 -85 60 l-45 0 0 -264z"/>
<path d="M31353 698 c-4 -7 -40 -123 -80 -257 -76 -257 -79 -286 -30 -279 17
2 26 16 40 61 l18 57 79 0 78 0 12 -50 c6 -27 18 -54 25 -60 21 -17 55 -2 55
23 -1 38 -139 500 -152 509 -19 11 -36 10 -45 -4z"/>
<path d="M31817 703 c-12 -11 -8 -502 3 -524 14 -25 46 -25 60 0 6 12 10 96
10 203 l1 183 88 -200 88 -200 47 -3 46 -3 0 270 c0 265 0 270 -21 276 -39 13
-44 -7 -49 -207 l-5 -191 -89 202 -89 201 -42 0 c-23 0 -45 -3 -48 -7z"/>
<path d="M36594 700 c-21 -8 -126 -133 -150 -178 -17 -34 -20 -269 -3 -306 21
-45 63 -58 176 -55 97 4 104 6 130 32 26 25 28 34 31 122 l4 95 -80 0 c-60 0
-83 -4 -93 -16 -22 -26 1 -49 55 -52 45 -3 46 -4 46 -38 0 -66 -11 -74 -103
-74 -51 0 -88 5 -95 12 -8 8 -12 50 -12 124 l0 112 57 76 57 76 64 0 c35 0 72
5 83 10 21 12 25 40 7 58 -14 14 -141 15 -174 2z"/>
<path d="M37040 446 c0 -228 2 -265 16 -277 11 -9 20 -10 32 -2 15 9 18 39 22
223 l5 214 30 -45 c17 -24 32 -55 35 -69 4 -20 11 -25 35 -25 24 0 31 5 35 25
3 14 19 45 35 69 l30 45 3 -217 c2 -207 3 -216 23 -222 46 -15 49 -1 49 281
l0 264 -45 0 c-43 0 -45 -2 -85 -60 -22 -33 -43 -60 -45 -60 -2 0 -23 27 -45
60 -40 58 -42 60 -85 60 l-45 0 0 -264z"/>
<path d="M37803 698 c-4 -7 -40 -123 -80 -257 -76 -257 -79 -286 -30 -279 17
2 26 16 40 61 l18 57 79 0 78 0 12 -50 c6 -27 18 -54 25 -60 21 -17 55 -2 55
23 -1 38 -139 500 -152 509 -19 11 -36 10 -45 -4z"/>
<path d="M38267 703 c-12 -11 -8 -502 3 -524 14 -25 46 -25 60 0 6 12 10 96
10 203 l1 183 88 -200 88 -200 47 -3 46 -3 0 270 c0 265 0 270 -21 276 -39 13
-44 -7 -49 -207 l-5 -191 -89 202 -89 201 -42 0 c-23 0 -45 -3 -48 -7z"/>
<path d="M43490 446 c0 -228 2 -265 16 -277 11 -9 20 -10 32 -2 15 9 18 39 22
223 l5 214 30 -45 c17 -24 32 -55 35 -69 4 -20 11 -25 35 -25 24 0 31 5 35 25
3 14 19 45 35 69 l30 45 3 -217 c2 -207 3 -216 23 -222 46 -15 49 -1 49 281
l0 264 -45 0 c-43 0 -45 -2 -85 -60 -22 -33 -43 -60 -45 -60 -2 0 -23 27 -45
60 -40 58 -42 60 -85 60 l-45 0 0 -264z"/>
<path d="M44253 698 c-4 -7 -40 -123 -80 -257 -76 -257 -79 -286 -30 -279 17
2 26 16 40 61 l18 57 79 0 78 0 12 -50 c6 -27 18 -54 25 -60 21 -17 55 -2 55
23 -1 38 -139 500 -152 509 -19 11 -36 10 -45 -4z"/>
<path d="M44717 703 c-12 -11 -8 -502 3 -524 14 -25 46 -25 60 0 6 12 10 96
10 203 l1 183 88 -200 88 -200 47 -3 46 -3 0 270 c0 265 0 270 -21 276 -39 13
-44 -7 -49 -207 l-5 -191 -89 202 -89 201 -42 0 c-23 0 -45 -3 -48 -7z"/>
<path d="M50703 698 c-4 -7 -40 -123 -80 -257 -76 -257 -79 -286 -30 -279 17
2 26 16 40 61 l18 57 79 0 78 0 12 -50 c6 -27 18 -54 25 -60 21 -17 55 -2 55
23 -1 38 -139 500 -152 509 -19 11 -36 10 -45 -4z"/>
<path d="M51167 703 c-12 -11 -8 -502 3 -524 14 -25 46 -25 60 0 6 12 10 96
10 203 l1 183 88 -200 88 -200 47 -3 46 -3 0 270 c0 265 0 270 -21 276 -39 13
-44 -7 -49 -207 l-5 -191 -89 202 -89 201 -42 0 c-23 0 -45 -3 -48 -7z"/>
<path d="M57617 703 c-12 -11 -8 -502 3 -524 14 -25 46 -25 60 0 6 12 10 96
10 203 l1 183 88 -200 88 -200 47 -3 46 -3 0 270 c0 265 0 270 -21 276 -39 13
-44 -7 -49 -207 l-5 -191 -89 202 -89 201 -42 0 c-23 0 -45 -3 -48 -7z"/>
</g>
</svg>
